C:\Users\u0150099\Documents\master_thesis\3dpredictsim\Polynomials\CP3_T0_scaled_sf_v2_right\dummy_motion.mot
nRows=8
nColumns=32

name C:\Users\u0150099\Documents\master_thesis\3dpredictsim\Polynomials\CP3_T0_scaled_sf_v2_right\dummy_motion.mot
datacolumns 32
datarows 8
range 25.0100000000 25.0800000000
endheader
time	pelvis_tilt	pelvis_list	pelvis_rotation	pelvis_tx	pelvis_ty	pelvis_tz	hip_flexion_r	hip_adduction_r	hip_rotation_r	knee_angle_r	ankle_angle_r	subtalar_angle_r	mtp_angle_r	hip_flexion_l	hip_adduction_l	hip_rotation_l	knee_angle_l	ankle_angle_l	subtalar_angle_l	mtp_angle_l	lumbar_extension	lumbar_bending	lumbar_rotation	arm_flex_r	arm_add_r	arm_rot_r	elbow_flex_r	arm_flex_l	arm_add_l	arm_rot_l	elbow_flex_l
       25.0100000000	        0.0000000000	        0.0000000000	        0.0000000000	        0.0000000000	        0.0000000000	        0.0000000000	        1.3513787667	       11.2165223522	       -4.8025196548	      -32.3213848191	       17.6558221700	       14.2544431999	        2.0466650218	        0.0000000000	        0.0000000000	        0.0000000000	        0.0000000000	        0.0000000000	        0.0000000000	        0.0000000000	        5.9147257721	      -27.8543036174	      -11.5748922946	        0.0000000000	        0.0000000000	        0.0000000000	        0.0000000000	        0.0000000000	        0.0000000000	        0.0000000000	        0.0000000000	
       25.0200000000	        0.0000000000	        0.0000000000	        0.0000000000	        0.0000000000	        0.0000000000	        0.0000000000	       -2.6817948586	      -28.5000433659	        7.0659093726	      -75.4723241657	       -9.6969344454	       -2.4234849307	       35.0198184766	        0.0000000000	        0.0000000000	        0.0000000000	        0.0000000000	        0.0000000000	        0.0000000000	        0.0000000000	       19.4991035695	      -21.4808483773	      -25.2197122830	        0.0000000000	        0.0000000000	        0.0000000000	        0.0000000000	        0.0000000000	        0.0000000000	        0.0000000000	        0.0000000000	
       25.0300000000	        0.0000000000	        0.0000000000	        0.0000000000	        0.0000000000	        0.0000000000	        0.0000000000	      -14.9541764306	      -15.3557455760	      -27.7138623005	      -82.9551224496	      -25.1826042391	      -14.4513047916	       37.4619353923	        0.0000000000	        0.0000000000	        0.0000000000	        0.0000000000	        0.0000000000	        0.0000000000	        0.0000000000	      -25.8532886067	      -17.1591018570	       28.4405277485	        0.0000000000	        0.0000000000	        0.0000000000	        0.0000000000	        0.0000000000	        0.0000000000	        0.0000000000	        0.0000000000	
       25.0400000000	        0.0000000000	        0.0000000000	        0.0000000000	        0.0000000000	        0.0000000000	        0.0000000000	      -41.8622647236	        6.0000179484	        4.8626525904	      -11.6983282808	       14.6748370021	      -12.3802143064	       11.5068752308	        0.0000000000	        0.0000000000	        0.0000000000	        0.0000000000	        0.0000000000	        0.0000000000	        0.0000000000	       23.5749898244	       -7.0313460214	      -14.7059595899	        0.0000000000	        0.0000000000	        0.0000000000	        0.0000000000	        0.0000000000	        0.0000000000	        0.0000000000	        0.0000000000	
       25.0500000000	        0.0000000000	        0.0000000000	        0.0000000000	        0.0000000000	        0.0000000000	        0.0000000000	       18.5601704141	       23.8621483220	       21.2366812994	      -60.1498862316	       23.0119698778	        5.9793031923	       28.5347487337	        0.0000000000	        0.0000000000	        0.0000000000	        0.0000000000	        0.0000000000	        0.0000000000	        0.0000000000	      -21.8017305889	      -18.8970005376	      -29.2136989284	        0.0000000000	        0.0000000000	        0.0000000000	        0.0000000000	        0.0000000000	        0.0000000000	        0.0000000000	        0.0000000000	
       25.0600000000	        0.0000000000	        0.0000000000	        0.0000000000	        0.0000000000	        0.0000000000	        0.0000000000	      -31.6265209900	       -7.4221543878	       21.5357582489	      -83.5847912606	        9.9842132300	      -27.1279205028	       49.5291654241	        0.0000000000	        0.0000000000	        0.0000000000	        0.0000000000	        0.0000000000	        0.0000000000	        0.0000000000	      -29.4827430080	        1.1103178014	      -22.5103466656	        0.0000000000	        0.0000000000	        0.0000000000	        0.0000000000	        0.0000000000	        0.0000000000	        0.0000000000	        0.0000000000	
       25.0700000000	        0.0000000000	        0.0000000000	        0.0000000000	        0.0000000000	        0.0000000000	        0.0000000000	       45.7386805720	       13.0945118393	       18.4740325484	      -89.4492043757	       24.4032389858	       28.6229299331	       30.3369046119	        0.0000000000	        0.0000000000	        0.0000000000	        0.0000000000	        0.0000000000	        0.0000000000	        0.0000000000	       -8.5806899528	        9.0322755712	       -5.6036377117	        0.0000000000	        0.0000000000	        0.0000000000	        0.0000000000	        0.0000000000	        0.0000000000	        0.0000000000	        0.0000000000	
       25.0800000000	        0.0000000000	        0.0000000000	        0.0000000000	        0.0000000000	        0.0000000000	        0.0000000000	      -20.4243888843	      -13.6609761926	        4.2630342624	      -54.2315118058	       -0.4262015860	      -22.2495272978	       48.7748551136	        0.0000000000	        0.0000000000	        0.0000000000	        0.0000000000	        0.0000000000	        0.0000000000	        0.0000000000	      -27.4983432783	      -18.4800342298	      -14.0726657668	        0.0000000000	        0.0000000000	        0.0000000000	        0.0000000000	        0.0000000000	        0.0000000000	        0.0000000000	        0.0000000000	
